<svg width="50" height="50" viewBox="0 0 50 50" fill="none" xmlns="http://www.w3.org/2000/svg">
<g id="Group 7">
<path id="Vector" d="M14.3483 0H35.1285C43.0448 0 49.4768 6.43199 49.4768 14.3483V35.1285C49.4768 38.9339 47.9651 42.5835 45.2743 45.2743C42.5835 47.9651 38.9339 49.4768 35.1285 49.4768H14.3483C6.43199 49.4768 0 43.0448 0 35.1285V14.3483C0 10.5429 1.51169 6.89334 4.20251 4.20251C6.89334 1.51169 10.5429 0 14.3483 0ZM13.8535 4.94768C11.4915 4.94768 9.22631 5.88597 7.55614 7.55614C5.88597 9.22631 4.94768 11.4915 4.94768 13.8535V35.6233C4.94768 40.5463 8.93057 44.5291 13.8535 44.5291H35.6233C37.9853 44.5291 40.2505 43.5909 41.9207 41.9207C43.5909 40.2505 44.5291 37.9853 44.5291 35.6233V13.8535C44.5291 8.93057 40.5463 4.94768 35.6233 4.94768H13.8535ZM37.7261 8.65844C38.5462 8.65844 39.3327 8.98424 39.9127 9.56416C40.4926 10.1441 40.8184 10.9306 40.8184 11.7507C40.8184 12.5709 40.4926 13.3574 39.9127 13.9373C39.3327 14.5173 38.5462 14.843 37.7261 14.843C36.9059 14.843 36.1194 14.5173 35.5395 13.9373C34.9596 13.3574 34.6338 12.5709 34.6338 11.7507C34.6338 10.9306 34.9596 10.1441 35.5395 9.56416C36.1194 8.98424 36.9059 8.65844 37.7261 8.65844ZM24.7384 12.3692C28.0189 12.3692 31.1651 13.6724 33.4848 15.9921C35.8044 18.3117 37.1076 21.4579 37.1076 24.7384C37.1076 28.0189 35.8044 31.1651 33.4848 33.4848C31.1651 35.8044 28.0189 37.1076 24.7384 37.1076C21.4579 37.1076 18.3117 35.8044 15.9921 33.4848C13.6724 31.1651 12.3692 28.0189 12.3692 24.7384C12.3692 21.4579 13.6724 18.3117 15.9921 15.9921C18.3117 13.6724 21.4579 12.3692 24.7384 12.3692ZM24.7384 17.3169C22.7701 17.3169 20.8824 18.0988 19.4906 19.4906C18.0988 20.8824 17.3169 22.7701 17.3169 24.7384C17.3169 26.7067 18.0988 28.5944 19.4906 29.9862C20.8824 31.378 22.7701 32.1599 24.7384 32.1599C26.7067 32.1599 28.5944 31.378 29.9862 29.9862C31.378 28.5944 32.1599 26.7067 32.1599 24.7384C32.1599 22.7701 31.378 20.8824 29.9862 19.4906C28.5944 18.0988 26.7067 17.3169 24.7384 17.3169Z" fill="#D0D2AD"/>
</g>
</svg>
